<?xml version="1.0" encoding="UTF-8"?>
<svg xmlns="http://www.w3.org/2000/svg" viewBox="0 0 1200 900" role="img" aria-labelledby="title desc">
  <title id="title">Lumencrest  Player City Map</title>
  <desc id="desc">District overview of Lumencrest with major landmarks, gates, roads, and cable car lines. Player-safe reference.</desc>

  <defs>
    <style>
      .district-label { font-family: Georgia, 'Times New Roman', serif; font-size: 15px; font-weight: 700; fill: #1a1a1a; }
      .district-sublabel { font-family: Georgia, serif; font-size: 10px; fill: #444; }
      .landmark { font-family: Arial, Helvetica, sans-serif; font-size: 11px; fill: #1a1a1a; font-weight: 600; }
      .road-label { font-family: Arial, sans-serif; font-size: 9px; fill: #5a4a3a; font-style: italic; }
      .gate-label { font-family: Arial, sans-serif; font-size: 10px; fill: #2a2a2a; font-weight: 700; }
      .legend-title { font-family: Arial, sans-serif; font-size: 12px; font-weight: 700; fill: #1a1a1a; }
      .legend-text { font-family: Arial, sans-serif; font-size: 10px; fill: #333; }
      .map-title { font-family: Georgia, serif; font-size: 26px; font-weight: 700; fill: #1a1a1a; }
      .map-subtitle { font-family: Arial, sans-serif; font-size: 11px; fill: #555; }
      .compass { font-family: Arial, sans-serif; font-size: 11px; fill: #333; font-weight: 700; }
    </style>

    <marker id="arrow-cable" markerWidth="8" markerHeight="8" refX="6" refY="4" orient="auto">
      <path d="M0,0 L8,4 L0,8 Z" fill="#8b4513"/>
    </marker>

    <filter id="shadow" x="-20%" y="-20%" width="140%" height="140%">
      <feDropShadow dx="1" dy="1" stdDeviation="2" flood-opacity="0.25"/>
    </filter>

    <pattern id="river-pattern" width="12" height="12" patternUnits="userSpaceOnUse" patternTransform="rotate(15)">
      <rect width="12" height="12" fill="#7eb8d4"/>
      <path d="M0 6 Q3 3 6 6 T12 6" stroke="#5a9ab8" stroke-width="1" fill="none" opacity="0.5"/>
    </pattern>
  </defs>

  <!-- Parchment background -->
  <rect width="1200" height="900" fill="#f4ead8"/>
  <rect x="40" y="40" width="1120" height="820" fill="#efe3cf" stroke="#c4a574" stroke-width="2" rx="4"/>

  <!-- City wall -->
  <path d="M 160 120 L 1040 120 Q 1080 120 1080 160 L 1080 720 Q 1080 760 1040 760 L 160 760 Q 120 760 120 720 L 120 160 Q 120 120 160 120 Z"
        fill="none" stroke="#6b5a48" stroke-width="4" stroke-linejoin="round"/>

  <!-- Silverrun River -->
  <path d="M 1040 100 L 1160 100 L 1160 780 L 1040 780 Z" fill="url(#river-pattern)" stroke="#4a8aa8" stroke-width="2"/>
  <text x="1100" y="450" text-anchor="middle" class="district-label" transform="rotate(90 1100 450)" font-size="13">Silverrun River</text>

  <!-- Districts -->
  <g id="districts">
    <!-- Shadowside -->
    <path d="M 200 130 L 980 130 L 960 270 L 780 280 L 620 275 L 420 270 L 240 265 Z"
          fill="#3d3d45" fill-opacity="0.35" stroke="#2a2a32" stroke-width="2"/>
    <text x="580" y="195" text-anchor="middle" class="district-label" fill="#1a1a22">Shadowside</text>
    <text x="580" y="212" text-anchor="middle" class="district-sublabel">No electric lighting</text>

    <!-- Manufactories -->
    <path d="M 140 280 L 400 275 L 395 720 L 140 715 Z"
          fill="#6b7a82" fill-opacity="0.4" stroke="#4a555c" stroke-width="2"/>
    <text x="265" y="500" text-anchor="middle" class="district-label" transform="rotate(-90 265 500)">The Manufactories</text>
    <text x="285" y="500" text-anchor="middle" class="district-sublabel" transform="rotate(-90 285 500)">Rationed power</text>

    <!-- Academic Quarter -->
    <path d="M 410 295 L 520 290 L 525 540 L 415 545 Z"
          fill="#6a8caf" fill-opacity="0.35" stroke="#4a6a8f" stroke-width="2"/>
    <text x="465" y="415" text-anchor="middle" class="district-label" font-size="13">Academic Quarter</text>

    <!-- Radiant Core (elevated) -->
    <ellipse cx="600" cy="430" rx="95" ry="75" fill="#d4b85a" fill-opacity="0.45" stroke="#a88830" stroke-width="2.5" filter="url(#shadow)"/>
    <text x="600" y="420" text-anchor="middle" class="district-label">Radiant Core</text>
    <text x="600" y="437" text-anchor="middle" class="district-sublabel">Seat of power</text>

    <!-- Vault District -->
    <rect x="545" y="455" width="110" height="55" rx="4" fill="#8b7355" fill-opacity="0.5" stroke="#5a4a38" stroke-width="2" stroke-dasharray="4 2"/>
    <text x="600" y="488" text-anchor="middle" class="district-sublabel" font-weight="700">Vault District</text>
    <text x="600" y="500" text-anchor="middle" class="district-sublabel" font-size="8">(Restricted)</text>

    <!-- Lamplight Ward -->
    <path d="M 530 295 L 1030 290 L 1025 640 L 530 635 Z"
          fill="#c9a050" fill-opacity="0.3" stroke="#9a7838" stroke-width="2"/>
    <text x="780" y="350" text-anchor="middle" class="district-label">Lamplight Ward</text>
    <text x="780" y="367" text-anchor="middle" class="district-sublabel">Commercial heart</text>

    <!-- Halfling Quarter -->
    <path d="M 540 645 L 1000 640 L 990 745 L 540 750 Z"
          fill="#7a9a6a" fill-opacity="0.4" stroke="#5a7a4a" stroke-width="2"/>
    <text x="770" y="700" text-anchor="middle" class="district-label">Halfling Quarter</text>
  </g>

  <!-- Major roads (spoke pattern) -->
  <g id="roads" stroke="#8b7355" stroke-width="5" stroke-linecap="round" fill="none" opacity="0.7">
    <!-- Lumenway (N-S) -->
    <line x1="600" y1="270" x2="600" y2="640"/>
    <!-- Wire Road (E-W) -->
    <line x1="400" y1="430" x2="1020" y2="430"/>
    <!-- Factory Row -->
    <line x1="400" y1="500" x2="1020" y2="500"/>
    <!-- Hollow Road into Shadowside -->
    <line x1="720" y1="275" x2="720" y2="130"/>
    <!-- Brewers' Lane -->
    <line x1="600" y1="640" x2="900" y2="700"/>
  </g>
  <g class="road-label">
    <text x="615" y="360">Lumenway</text>
    <text x="700" y="418">Wire Road</text>
    <text x="700" y="492">Factory Row</text>
    <text x="735" y="200">Hollow Road</text>
    <text x="820" y="675">Brewers' Lane</text>
  </g>

  <!-- Cable car lines -->
  <g id="cable-cars" stroke="#8b4513" stroke-width="2.5" fill="none" stroke-dasharray="8 4" opacity="0.85">
    <!-- Central Line -->
    <path d="M 900 430 L 780 430 L 600 430 L 465 400 L 280 480" marker-end="url(#arrow-cable)"/>
    <!-- Wire Road Line -->
    <path d="M 850 620 L 780 430 L 650 680 L 600 730"/>
    <!-- Factory Connector -->
    <path d="M 280 580 L 280 480 L 350 200"/>
    <!-- River Line -->
    <path d="M 950 350 L 465 400 L 1080 420"/>
  </g>

  <!-- Cable car stations -->
  <g id="stations" fill="#8b4513" stroke="#fff" stroke-width="1">
    <circle cx="600" cy="430" r="6"/><title>Central Hub</title>
    <circle cx="780" cy="430" r="5"/><title>Merchant Square</title>
    <circle cx="900" cy="430" r="5"/><title>Lamplight Ward East</title>
    <circle cx="465" cy="400" r="5"/><title>Luminarium Stop</title>
    <circle cx="280" cy="480" r="5"/><title>North Factory Hub</title>
    <circle cx="280" cy="580" r="5"/><title>South Factory Hub</title>
    <circle cx="350" cy="200" r="5"/><title>Shadowside Border</title>
    <circle cx="850" cy="620" r="5"/><title>Lamplight Ward South</title>
    <circle cx="650" cy="680" r="5"/><title>Halfling Quarter Entrance</title>
    <circle cx="600" cy="730" r="5"/><title>South Gate Station</title>
    <circle cx="950" cy="350" r="5"/><title>Eastwick</title>
    <circle cx="1080" cy="420" r="5"/><title>River Station</title>
  </g>

  <!-- Landmarks -->
  <g id="landmarks">
    <!-- Accord Chamber -->
    <polygon points="590,395 610,395 615,410 605,420 595,420 585,410" fill="#c9a84c" stroke="#7a6020" stroke-width="1.5"/>
    <text x="620" y="405" class="landmark">Accord Chamber</text>

    <!-- Vault Gate -->
    <rect x="568" y="468" width="24" height="18" fill="#5a4a38" stroke="#2a2018" stroke-width="1"/>
    <text x="600" y="465" text-anchor="middle" class="landmark" font-size="9">Vault Gate</text>

    <!-- Luminarium -->
    <rect x="440" y="375" width="50" height="35" fill="#5a7a9a" stroke="#3a5a7a" stroke-width="1.5" rx="2"/>
    <text x="465" y="365" text-anchor="middle" class="landmark">Luminarium</text>

    <!-- Archives dome -->
    <ellipse cx="455" cy="430" rx="22" ry="12" fill="#7a9aba" stroke="#4a6a8a" stroke-width="1"/>
    <text x="455" y="450" text-anchor="middle" class="landmark" font-size="9">Archives</text>

    <!-- Merchant Square -->
    <circle cx="780" cy="430" r="14" fill="none" stroke="#9a7838" stroke-width="2"/>
    <circle cx="780" cy="430" r="4" fill="#6ab0d4"/>
    <text x="780" y="455" text-anchor="middle" class="landmark">Merchant Square</text>

    <!-- Great Press -->
    <rect x="220" y="420" width="60" height="70" fill="#5a6268" stroke="#3a4248" stroke-width="1.5"/>
    <rect x="245" y="395" width="10" height="30" fill="#4a5258"/>
    <text x="250" y="505" text-anchor="middle" class="landmark">The Great Press</text>

    <!-- Common Green -->
    <ellipse cx="750" cy="690" rx="45" ry="25" fill="#6a9a5a" fill-opacity="0.5" stroke="#4a7a3a" stroke-width="1.5"/>
    <text x="750" y="725" text-anchor="middle" class="landmark">Common Green</text>
    <text x="820" y="665" class="landmark" font-size="9">Brewery Towers</text>

    <!-- Maze Quarter -->
    <path d="M 650 150 L 720 145 L 735 210 L 665 215 Z" fill="#2a2a32" fill-opacity="0.4" stroke="#1a1a22" stroke-width="1"/>
    <text x="690" y="185" text-anchor="middle" class="landmark" fill="#eee">Maze Quarter</text>
  </g>

  <!-- Gates -->
  <g id="gates">
    <rect x="540" y="108" width="120" height="18" fill="#6b5a48" stroke="#3a3028" stroke-width="2" rx="2"/>
    <text x="600" y="100" text-anchor="middle" class="gate-label">Pauper's Gate (N)</text>

    <rect x="820" y="742" width="100" height="18" fill="#6b5a48" stroke="#3a3028" stroke-width="2" rx="2"/>
    <text x="870" y="778" text-anchor="middle" class="gate-label">Copper Gate (S)</text>

    <rect x="108" y="470" width="18" height="80" fill="#6b5a48" stroke="#3a3028" stroke-width="2" rx="2"/>
    <text x="95" y="520" text-anchor="middle" class="gate-label" transform="rotate(-90 95 520)">West Gate</text>
    <text x="75" y="555" text-anchor="middle" class="district-sublabel" transform="rotate(-90 75 555)">Ironspine Rd</text>

    <rect x="1040" y="400" width="18" height="80" fill="#6b5a48" stroke="#3a3028" stroke-width="2" rx="2"/>
    <text x="1065" y="445" text-anchor="middle" class="gate-label" font-size="9">East Gate</text>
  </g>

  <!-- Title block -->
  <text x="600" y="78" text-anchor="middle" class="map-title">Lumencrest</text>
  <text x="600" y="98" text-anchor="middle" class="map-subtitle">City of Light  Player Reference Map · ~87,000 residents</text>

  <!-- Compass -->
  <g transform="translate(1050, 780)">
    <circle r="28" fill="#efe3cf" stroke="#6b5a48" stroke-width="1.5"/>
    <polygon points="0,-20 5,0 0,-8 -5,0" fill="#8b2020"/>
    <text y="-32" text-anchor="middle" class="compass">N</text>
    <text y="38" text-anchor="middle" class="compass" font-size="9">S</text>
    <text x="-38" y="4" text-anchor="middle" class="compass" font-size="9">W</text>
    <text x="38" y="4" text-anchor="middle" class="compass" font-size="9">E</text>
  </g>

  <!-- Legend -->
  <g transform="translate(60, 600)">
    <rect width="200" height="200" fill="#efe3cf" fill-opacity="0.92" stroke="#c4a574" stroke-width="1" rx="3"/>
    <text x="12" y="22" class="legend-title">Legend</text>

    <line x1="12" y1="38" x2="42" y2="38" stroke="#8b7355" stroke-width="4"/>
    <text x="50" y="42" class="legend-text">Major thoroughfare</text>

    <line x1="12" y1="58" x2="42" y2="58" stroke="#8b4513" stroke-width="2" stroke-dasharray="6 3"/>
    <text x="50" y="62" class="legend-text">Cable car line</text>

    <circle cx="27" cy="78" r="5" fill="#8b4513"/>
    <text x="50" y="82" class="legend-text">Cable car station</text>

    <rect x="12" y="92" width="30" height="14" fill="#6b5a48"/>
    <text x="50" y="104" class="legend-text">City gate</text>

    <rect x="12" y="114" width="30" height="14" fill="#8b7355" fill-opacity="0.5" stroke="#5a4a38" stroke-dasharray="3 2"/>
    <text x="50" y="126" class="legend-text">Vault District (no entry)</text>

    <text x="12" y="150" class="legend-text" font-style="italic">Not to scale. District boundaries</text>
    <text x="12" y="164" class="legend-text" font-style="italic">are approximate. For orientation</text>
    <text x="12" y="178" class="legend-text" font-style="italic">and travel planning.</text>
  </g>

  <!-- Scale bar -->
  <g transform="translate(60, 820)">
    <line x1="0" y1="0" x2="120" y2="0" stroke="#333" stroke-width="2"/>
    <line x1="0" y1="-4" x2="0" y2="4" stroke="#333" stroke-width="2"/>
    <line x1="120" y1="-4" x2="120" y2="4" stroke="#333" stroke-width="2"/>
    <text x="60" y="16" text-anchor="middle" class="legend-text">~1 mile (approximate)</text>
  </g>
</svg>
